<svg xmlns="http://www.w3.org/2000/svg" viewBox="0 0 230 300">
  <title>k8laude stacked — asterisk</title>
  <!-- Icon at full width (230px), padding below matches horizontal left padding (~18px) -->
  <g transform="translate(115, 112)">
    <path d="M225.407 135.107L206.4 52.547a14.838 14.838 0 0 0-7.958-9.9l-76.935-36.73a14.825 14.825 0 0 0-12.771 0L31.808 42.669a14.838 14.838 0 0 0-7.961 9.895L4.873 135.129a14.668 14.668 0 0 0 1.995 11.185c.261.4.538.788.838 1.162l53.246 66.205a14.98 14.98 0 0 0 11.499 5.487l85.387-.02a14.986 14.986 0 0 0 11.5-5.48l53.227-66.211a14.72 14.72 0 0 0 2.842-12.347z" fill="#D97757" transform="translate(-115,-112)"/>
    <path d="M216.208 133.167l-17.422-75.675a13.602 13.602 0 0 0-7.293-9.073l-70.521-33.67a13.589 13.589 0 0 0-11.705 0L38.76 48.437a13.598 13.598 0 0 0-7.295 9.072l-17.394 75.673a13.315 13.315 0 0 0-.004 5.81 13.506 13.506 0 0 0 .491 1.718 13.1 13.1 0 0 0 1.343 2.726c.239.365.491.72.765 1.064l48.804 60.678c.213.264.448.505.681.75a13.423 13.423 0 0 0 2.574 2.133 13.924 13.924 0 0 0 3.857 1.677 13.298 13.298 0 0 0 3.43.473h.759l77.504-.018a12.993 12.993 0 0 0 1.41-.083 13.47 13.47 0 0 0 1.989-.378 13.872 13.872 0 0 0 1.381-.442c.353-.135.705-.27 1.045-.433a13.941 13.941 0 0 0 1.479-.822 13.303 13.303 0 0 0 3.237-2.865l1.488-1.85 47.299-58.84a13.185 13.185 0 0 0 2.108-3.785 13.67 13.67 0 0 0 .5-1.724 13.282 13.282 0 0 0-.004-5.81z" fill="white" transform="translate(-115,-112)"/>
    <g transform="translate(0, 6) scale(5.25)">
      <path d="M4.709 15.955l4.72-2.647.08-.23-.08-.128H9.2l-.79-.048-2.698-.073-2.339-.097-2.266-.122-.571-.121L0 11.784l.055-.352.48-.321.686.06 1.52.103 2.278.158 1.652.097 2.449.255h.389l.055-.157-.134-.098-.103-.097-2.358-1.596-2.552-1.688-1.336-.972-.724-.491-.364-.462-.158-1.008.656-.722.881.06.225.061.893.686 1.908 1.476 2.491 1.833.365.304.145-.103.019-.073-.164-.274-1.355-2.446-1.446-2.49-.644-1.032-.17-.619a2.97 2.97 0 01-.104-.729L6.283.134 6.696 0l.996.134.42.364.62 1.414 1.002 2.229 1.555 3.03.456.898.243.832.091.255h.158V9.01l.128-1.706.237-2.095.23-2.695.08-.76.376-.91.747-.492.584.28.48.685-.067.444-.286 1.851-.559 2.903-.364 1.942h.212l.243-.242.985-1.306 1.652-2.064.73-.82.85-.904.547-.431h1.033l.76 1.129-.34 1.166-1.064 1.347-.881 1.142-1.264 1.7-.79 1.36.073.11.188-.02 2.856-.606 1.543-.28 1.841-.315.833.388.091.395-.328.807-1.969.486-2.309.462-3.439.813-.042.03.049.061 1.549.146.662.036h1.622l3.02.225.79.522.474.638-.079.485-1.215.62-1.64-.389-3.829-.91-1.312-.329h-.182v.11l1.093 1.068 2.006 1.81 2.509 2.33.127.578-.322.455-.34-.049-2.205-1.657-.851-.747-1.926-1.62h-.128v.17l.444.649 2.345 3.521.122 1.08-.17.353-.608.213-.668-.122-1.374-1.925-1.415-2.167-1.143-1.943-.14.08-.674 7.254-.316.37-.729.28-.607-.461-.322-.747.322-1.476.389-1.924.315-1.53.286-1.9.17-.632-.012-.042-.14.018-1.434 1.967-2.18 2.945-1.726 1.845-.414.164-.717-.37.067-.662.401-.589 2.388-3.036 1.44-1.882.93-1.086-.006-.158h-.055L4.132 18.56l-1.13.146-.487-.456.061-.746.231-.243 1.908-1.312-.006.006z" fill="#D97757" fill-rule="nonzero" transform="translate(-12,-12)"/>
    </g>
  </g>
  <!-- Text: full width of icon, 18px below shield bottom (~224 + 18 = 242) -->
  <text x="115" y="276" text-anchor="middle" font-family="system-ui,-apple-system,'Segoe UI',sans-serif" font-size="52" font-weight="700" fill="#D97757" letter-spacing="-0.5">k8laude</text>
</svg>
