<svg xmlns="http://www.w3.org/2000/svg" viewBox="0 0 230 300">
  <title>k8laude stacked — bot</title>
  <!-- Icon at full width (230px), padding below matches horizontal left padding (~18px) -->
  <g transform="translate(115, 112)">
    <path d="M225.407 135.107L206.4 52.547a14.838 14.838 0 0 0-7.958-9.9l-76.935-36.73a14.825 14.825 0 0 0-12.771 0L31.808 42.669a14.838 14.838 0 0 0-7.961 9.895L4.873 135.129a14.668 14.668 0 0 0 1.995 11.185c.261.4.538.788.838 1.162l53.246 66.205a14.98 14.98 0 0 0 11.499 5.487l85.387-.02a14.986 14.986 0 0 0 11.5-5.48l53.227-66.211a14.72 14.72 0 0 0 2.842-12.347z" fill="#D97757" transform="translate(-115,-112)"/>
    <path d="M216.208 133.167l-17.422-75.675a13.602 13.602 0 0 0-7.293-9.073l-70.521-33.67a13.589 13.589 0 0 0-11.705 0L38.76 48.437a13.598 13.598 0 0 0-7.295 9.072l-17.394 75.673a13.315 13.315 0 0 0-.004 5.81 13.506 13.506 0 0 0 .491 1.718 13.1 13.1 0 0 0 1.343 2.726c.239.365.491.72.765 1.064l48.804 60.678c.213.264.448.505.681.75a13.423 13.423 0 0 0 2.574 2.133 13.924 13.924 0 0 0 3.857 1.677 13.298 13.298 0 0 0 3.43.473h.759l77.504-.018a12.993 12.993 0 0 0 1.41-.083 13.47 13.47 0 0 0 1.989-.378 13.872 13.872 0 0 0 1.381-.442c.353-.135.705-.27 1.045-.433a13.941 13.941 0 0 0 1.479-.822 13.303 13.303 0 0 0 3.237-2.865l1.488-1.85 47.299-58.84a13.185 13.185 0 0 0 2.108-3.785 13.67 13.67 0 0 0 .5-1.724 13.282 13.282 0 0 0-.004-5.81z" fill="white" transform="translate(-115,-112)"/>
    <g transform="translate(0, 6) scale(5.75)">
      <path clip-rule="evenodd" d="M20.998 10.949H24v3.102h-3v3.028h-1.487V20H18v-2.921h-1.487V20H15v-2.921H9V20H7.488v-2.921H6V20H4.487v-2.921H3V14.05H0V10.95h3V5h17.998v5.949zM6 10.949h1.488V8.102H6v2.847zm10.51 0H18V8.102h-1.49v2.847z" fill="#D97757" fill-rule="evenodd" transform="translate(-12,-12)"/>
    </g>
  </g>
  <!-- Text: full width of icon, 18px below shield bottom (~224 + 18 = 242) -->
  <text x="115" y="276" text-anchor="middle" font-family="system-ui,-apple-system,'Segoe UI',sans-serif" font-size="52" font-weight="700" fill="#D97757" letter-spacing="-0.5">k8laude</text>
</svg>
